nColumns=28
nRows=73
DataType=double
version=3
OpenSimVersion=4.1
endheader
time	ground_force_1_vx	ground_force_1_vy	ground_force_1_vz	ground_force_1_px	ground_force_1_py	ground_force_1_pz	ground_force_1_mx	ground_force_1_my	ground_force_1_mz	ground_force_2_vx	ground_force_2_vy	ground_force_2_vz	ground_force_2_px	ground_force_2_py	ground_force_2_pz	ground_force_2_mx	ground_force_2_my	ground_force_2_mz	ground_force_3_vx	ground_force_3_vy	ground_force_3_vz	ground_force_3_px	ground_force_3_py	ground_force_3_pz	ground_force_3_mx	ground_force_3_my	ground_force_3_mz
9.6	8.24836	367.119	-64.4749	-0.213031	0.006	-0.378175	0	-2.04593	0	1.43024	347.65	61.5583	-0.179972	0.006	-0.772911	0	2.09668	0	0	0	0	0	0	0	0	0	0
9.61	7.88093	364.912	-64.1844	-0.213636	0.006	-0.378262	0	-2.02965	0	1.42324	346.746	61.6413	-0.180803	0.006	-0.772795	0	2.00507	0	0	0	0	0	0	0	0	0	0
9.62	7.46794	362.004	-63.7622	-0.214203	0.006	-0.378316	0	-2.02022	0	1.34015	344.989	61.5689	-0.181594	0.006	-0.772655	0	1.91591	0	0	0	0	0	0	0	0	0	0
9.63	7.00306	358.287	-63.195	-0.214718	0.006	-0.378336	0	-2.01456	0	1.17978	342.262	61.3169	-0.182337	0.006	-0.772484	0	1.82852	0	0	0	0	0	0	0	0	0	0
9.64	6.48098	353.667	-62.468	-0.215165	0.006	-0.378322	0	-2.00934	0	0.944836	338.479	60.863	-0.183028	0.006	-0.772276	0	1.74215	0	0	0	0	0	0	0	0	0	0
9.65	5.90064	348.077	-61.5651	-0.215529	0.006	-0.378275	0	-2.00136	0	0.643079	333.598	60.1877	-0.183662	0.006	-0.772023	0	1.65596	0	0	0	0	0	0	0	0	0	0
9.66	5.26783	341.48	-60.4696	-0.215798	0.006	-0.3782	0	-1.98774	0	0.287019	327.612	59.2759	-0.184234	0.006	-0.771718	0	1.56912	0	0	0	0	0	0	0	0	0	0
9.67	4.59534	333.869	-59.1655	-0.215961	0.006	-0.378103	0	-1.96602	0	-0.107473	320.553	58.1187	-0.184742	0.006	-0.771352	0	1.48083	0	0	0	0	0	0	0	0	0	0
9.68	3.90101	325.27	-57.6409	-0.216011	0.006	-0.377994	0	-1.9343	0	-0.522623	312.479	56.7142	-0.185178	0.006	-0.770916	0	1.39046	0	0	0	0	0	0	0	0	0	0
9.69	3.2045	315.738	-55.8897	-0.215939	0.006	-0.377878	0	-1.89127	0	-0.939958	303.477	55.0692	-0.185537	0.006	-0.770405	0	1.29749	0	0	0	0	0	0	0	0	0	0
9.7	2.52486	305.365	-53.9144	-0.215738	0.006	-0.377764	0	-1.83637	0	-1.33991	293.666	53.1993	-0.185811	0.006	-0.769812	0	1.20169	0	0	0	0	0	0	0	0	0	0
9.71	1.87957	294.268	-51.7272	-0.215398	0.006	-0.377652	0	-1.76984	0	-1.7014	283.194	51.1295	-0.185993	0.006	-0.769136	0	1.10344	0	0	0	0	0	0	0	0	0	0
9.72	1.2846	282.6	-49.3519	-0.214908	0.006	-0.377546	0	-1.69268	0	-2.00333	272.239	48.8937	-0.186081	0.006	-0.768373	0	1.0039	0	0	0	0	0	0	0	0	0	0
9.73	0.754234	270.544	-46.8247	-0.214255	0.006	-0.377442	0	-1.60667	0	-2.22648	261.015	46.535	-0.186072	0.006	-0.767524	0	0.904853	0	0	0	0	0	0	0	0	0	0
9.74	0.299529	258.306	-44.1926	-0.213425	0.006	-0.377336	0	-1.51415	0	-2.3565	249.753	44.1043	-0.185966	0.006	-0.766598	0	0.808364	0	0	0	0	0	0	0	0	0	0
9.75	-0.0736416	246.101	-41.5109	-0.212401	0.006	-0.377218	0	-1.41787	0	-2.38776	238.688	41.6589	-0.18576	0.006	-0.765608	0	0.716656	0	0	0	0	0	0	0	0	0	0
9.76	-0.365579	234.149	-38.8406	-0.211168	0.006	-0.377076	0	-1.32082	0	-2.32504	228.047	39.2593	-0.185446	0.006	-0.764579	0	0.631966	0	0	0	0	0	0	0	0	0	0
9.77	-0.583133	222.657	-36.2444	-0.209708	0.006	-0.376893	0	-1.22595	0	-2.18227	218.029	36.9648	-0.185014	0.006	-0.763545	0	0.556283	0	0	0	0	0	0	0	0	0	0
9.78	-0.739716	211.816	-33.7844	-0.208005	0.006	-0.376649	0	-1.13607	0	-1.98012	208.801	34.8298	-0.184447	0.006	-0.762545	0	0.491137	0	0	0	0	0	0	0	0	0	0
9.79	-0.853769	201.805	-31.5193	-0.20605	0.006	-0.376323	0	-1.05356	0	-1.74132	200.507	32.9023	-0.18373	0.006	-0.761627	0	0.437543	0	0	0	0	0	0	0	0	0	0
9.8	-0.944683	192.795	-29.5005	-0.203847	0.006	-0.375895	0	-0.980172	0	-1.48569	193.271	31.2202	-0.182857	0.006	-0.760837	0	0.396091	0	0	0	0	0	0	0	0	0	0
9.81	-1.03043	184.948	-27.7681	-0.201417	0.006	-0.375354	0	-0.917085	0	-1.22914	187.202	29.8118	-0.181835	0.006	-0.760221	0	0.366897	0	0	0	0	0	0	0	0	0	0
9.82	-1.12519	178.425	-26.3495	-0.198811	0.006	-0.374699	0	-0.864995	0	-0.984029	182.41	28.6959	-0.180691	0.006	-0.75982	0	0.349615	0	0	0	0	0	0	0	0	0	0
9.83	-1.23623	173.375	-25.2569	-0.196108	0.006	-0.37394	0	-0.82426	0	-0.757771	178.996	27.881	-0.179474	0.006	-0.759662	0	0.343573	0	0	0	0	0	0	0	0	0	0
9.84	-1.3617	169.917	-24.4867	-0.193418	0.006	-0.373105	0	-0.79517	0	-0.55224	177.04	27.3646	-0.17825	0.006	-0.759763	0	0.347957	0	0	0	0	0	0	0	0	0	0
9.85	-1.49133	168.126	-24.022	-0.190866	0.006	-0.372228	0	-0.778127	0	-0.364491	176.586	27.135	-0.177095	0.006	-0.760118	0	0.361986	0	0	0	0	0	0	0	0	0	0
9.86	-1.6095	168.029	-23.8358	-0.188577	0.006	-0.371352	0	-0.773749	0	-0.18734	177.65	27.1727	-0.176085	0.006	-0.760706	0	0.385056	0	0	0	0	0	0	0	0	0	0
9.87	-1.70055	169.606	-23.8957	-0.186655	0.006	-0.370521	0	-0.782742	0	-0.00916823	180.209	27.452	-0.17529	0.006	-0.761485	0	0.416718	0	0	0	0	0	0	0	0	0	0
9.88	-1.7527	172.799	-24.168	-0.185171	0.006	-0.369769	0	-0.805749	0	0.18513	184.205	27.9425	-0.174764	0.006	-0.762402	0	0.456657	0	0	0	0	0	0	0	0	0	0
9.89	-1.75825	177.515	-24.6209	-0.184151	0.006	-0.369121	0	-0.84316	0	0.41075	189.546	28.6108	-0.174534	0.006	-0.763401	0	0.504483	0	0	0	0	0	0	0	0	0	0
9.9	-1.71373	183.632	-25.2269	-0.183581	0.006	-0.368585	0	-0.894783	0	0.678886	196.104	29.4216	-0.174598	0.006	-0.764429	0	0.559454	0	0	0	0	0	0	0	0	0	0
9.91	-1.62198	190.999	-25.9647	-0.183408	0.006	-0.368159	0	-0.959596	0	0.994456	203.716	30.3378	-0.174922	0.006	-0.765442	0	0.620346	0	0	0	0	0	0	0	0	0	0
9.92	-1.49115	199.437	-26.8187	-0.183556	0.006	-0.367827	0	-1.03579	0	1.35372	212.177	31.3213	-0.175451	0.006	-0.766408	0	0.685417	0	0	0	0	0	0	0	0	0	0
9.93	-1.33278	208.742	-27.7773	-0.183937	0.006	-0.367568	0	-1.12083	0	1.74302	221.251	32.3346	-0.176113	0.006	-0.767308	0	0.752382	0	0	0	0	0	0	0	0	0	0
9.94	-1.16165	218.684	-28.8306	-0.184467	0.006	-0.367358	0	-1.21162	0	2.13987	230.677	33.3424	-0.176836	0.006	-0.768131	0	0.818637	0	0	0	0	0	0	0	0	0	0
9.95	-0.995532	229.014	-29.9668	-0.185068	0.006	-0.367176	0	-1.30488	0	2.5158	240.187	34.3156	-0.177549	0.006	-0.768876	0	0.881534	0	0	0	0	0	0	0	0	0	0
9.96	-0.85364	239.473	-31.1719	-0.185675	0.006	-0.367002	0	-1.39748	0	2.83974	249.516	35.2343	-0.178194	0.006	-0.769548	0	0.938653	0	0	0	0	0	0	0	0	0	0
9.97	-0.754093	249.805	-32.4294	-0.186238	0.006	-0.366822	0	-1.48656	0	3.08212	258.42	36.0902	-0.178728	0.006	-0.770157	0	0.987928	0	0	0	0	0	0	0	0	0	0
9.98	-0.710816	259.766	-33.7215	-0.186722	0.006	-0.366623	0	-1.56969	0	3.21913	266.682	36.8842	-0.179121	0.006	-0.770713	0	1.02764	0	0	0	0	0	0	0	0	0	0
9.99	-0.730967	269.136	-35.0294	-0.187101	0.006	-0.366396	0	-1.64506	0	3.23488	274.119	37.6217	-0.179359	0.006	-0.771225	0	1.05651	0	0	0	0	0	0	0	0	0	0
10	-0.814556	277.72	-36.3336	-0.187364	0.006	-0.366134	0	-1.71151	0	3.12254	280.588	38.3055	-0.179434	0.006	-0.771698	0	1.07386	0	0	0	0	0	0	0	0	0	0
10.01	-0.95459	285.364	-37.6127	-0.187508	0.006	-0.365832	0	-1.76853	0	2.885	285.993	38.9315	-0.179351	0.006	-0.772134	0	1.07988	0	0	0	0	0	0	0	0	0	0
10.02	-1.13789	291.96	-38.844	-0.187535	0.006	-0.365492	0	-1.81617	0	2.53465	290.29	39.4881	-0.17912	0.006	-0.772532	0	1.07569	0	0	0	0	0	0	0	0	0	0
10.03	-1.34753	297.459	-40.003	-0.187456	0.006	-0.365118	0	-1.85509	0	2.09251	293.49	39.9598	-0.178759	0.006	-0.772888	0	1.06338	0	0	0	0	0	0	0	0	0	0
10.04	-1.56527	301.87	-41.0654	-0.187283	0.006	-0.364715	0	-1.88647	0	1.58645	295.654	40.3316	-0.178292	0.006	-0.773197	0	1.04586	0	0	0	0	0	0	0	0	0	0
10.05	-1.77362	305.261	-42.009	-0.187032	0.006	-0.364294	0	-1.91182	0	1.0485	296.891	40.5938	-0.177752	0.006	-0.773453	0	1.02657	0	0	0	0	0	0	0	0	0	0
10.06	-1.95699	307.743	-42.8175	-0.186719	0.006	-0.363866	0	-1.93265	0	0.512072	297.355	40.7449	-0.177174	0.006	-0.773655	0	1.00906	0	0	0	0	0	0	0	0	0	0
10.07	-2.10299	309.461	-43.4823	-0.186365	0.006	-0.363441	0	-1.95045	0	0.00876617	297.222	40.7921	-0.176597	0.006	-0.7738	0	0.99668	0	0	0	0	0	0	0	0	0	0
10.08	-2.20328	310.573	-44.0036	-0.185987	0.006	-0.363033	0	-1.96647	0	-0.43454	296.68	40.7499	-0.17606	0.006	-0.773891	0	0.992302	0	0	0	0	0	0	0	0	0	0
10.09	-2.25357	311.236	-44.3902	-0.185603	0.006	-0.362651	0	-1.98172	0	-0.797903	295.91	40.6383	-0.175595	0.006	-0.773929	0	0.998074	0	0	0	0	0	0	0	0	0	0
10.1	-2.25325	311.593	-44.6575	-0.185228	0.006	-0.362304	0	-1.9969	0	-1.06849	295.069	40.4794	-0.175226	0.006	-0.773918	0	1.01514	0	0	0	0	0	0	0	0	0	0
10.11	-2.20472	311.76	-44.8247	-0.184872	0.006	-0.361999	0	-2.01238	0	-1.23981	294.284	40.2954	-0.174973	0.006	-0.773863	0	1.04375	0	0	0	0	0	0	0	0	0	0
10.12	-2.11262	311.833	-44.9128	-0.184545	0.006	-0.36174	0	-2.02824	0	-1.31139	293.647	40.1059	-0.174842	0.006	-0.773771	0	1.08341	0	0	0	0	0	0	0	0	0	0
10.13	-1.98349	311.886	-44.9423	-0.184254	0.006	-0.36153	0	-2.04432	0	-1.28765	293.213	39.9266	-0.174832	0.006	-0.773649	0	1.13299	0	0	0	0	0	0	0	0	0	0
10.14	-1.82554	311.974	-44.9317	-0.184004	0.006	-0.36137	0	-2.06023	0	-1.17676	293.004	39.7687	-0.174935	0.006	-0.773505	0	1.19077	0	0	0	0	0	0	0	0	0	0
10.15	-1.64868	312.132	-44.8971	-0.183797	0.006	-0.361258	0	-2.07546	0	-0.989979	293.01	39.6392	-0.175131	0.006	-0.773347	0	1.25452	0	0	0	0	0	0	0	0	0	0
10.16	-1.46457	312.372	-44.8507	-0.183631	0.006	-0.361194	0	-2.08932	0	-0.741012	293.203	39.5409	-0.1754	0.006	-0.773183	0	1.3216	0	0	0	0	0	0	0	0	0	0
10.17	-1.28623	312.677	-44.8007	-0.183499	0.006	-0.361174	0	-2.10101	0	-0.445429	293.538	39.4734	-0.175715	0.006	-0.77302	0	1.38926	0	0	0	0	0	0	0	0	0	0
10.18	-1.12716	313.01	-44.7509	-0.183389	0.006	-0.361193	0	-2.10973	0	-0.120234	293.957	39.4322	-0.176047	0.006	-0.772863	0	1.45478	0	0	0	0	0	0	0	0	0	0
10.19	-1.00038	313.323	-44.7015	-0.183288	0.006	-0.361244	0	-2.1148	0	0.216938	294.399	39.4107	-0.176368	0.006	-0.772715	0	1.5156	0	0	0	0	0	0	0	0	0	0
10.2	-0.917506	313.567	-44.6496	-0.18318	0.006	-0.36132	0	-2.11578	0	0.549278	294.799	39.4009	-0.17665	0.006	-0.772582	0	1.56975	0	0	0	0	0	0	0	0	0	0
10.21	-0.888468	313.707	-44.5895	-0.183052	0.006	-0.361412	0	-2.11258	0	0.861661	295.106	39.3949	-0.176866	0.006	-0.772464	0	1.61599	0	0	0	0	0	0	0	0	0	0
10.22	-0.920568	313.723	-44.5133	-0.18289	0.006	-0.361515	0	-2.10555	0	1.14127	295.283	39.3856	-0.176997	0.006	-0.772363	0	1.65385	0	0	0	0	0	0	0	0	0	0
10.23	-1.01647	313.608	-44.4118	-0.182688	0.006	-0.361622	0	-2.09551	0	1.3779	295.324	39.3672	-0.177031	0.006	-0.772279	0	1.68353	0	0	0	0	0	0	0	0	0	0
10.24	-1.17266	313.362	-44.2771	-0.18244	0.006	-0.361731	0	-2.0838	0	1.56375	295.247	39.3358	-0.176958	0.006	-0.772212	0	1.70592	0	0	0	0	0	0	0	0	0	0
10.25	-1.37915	312.986	-44.1031	-0.182147	0.006	-0.36184	0	-2.07205	0	1.69309	295.091	39.2897	-0.17678	0.006	-0.772161	0	1.72243	0	0	0	0	0	0	0	0	0	0
10.26	-1.62022	312.482	-43.8872	-0.181814	0.006	-0.361946	0	-2.06186	0	1.76253	294.904	39.2295	-0.176499	0.006	-0.772126	0	1.73457	0	0	0	0	0	0	0	0	0	0
10.27	-1.87662	311.856	-43.6302	-0.18145	0.006	-0.362049	0	-2.05454	0	1.77132	294.73	39.1588	-0.176126	0.006	-0.772106	0	1.74375	0	0	0	0	0	0	0	0	0	0
10.28	-2.12942	311.122	-43.3362	-0.181066	0.006	-0.36215	0	-2.05103	0	1.71987	294.605	39.0839	-0.175672	0.006	-0.772101	0	1.751	0	0	0	0	0	0	0	0	0	0
10.29	-2.36226	310.299	-43.0123	-0.180674	0.006	-0.362248	0	-2.05179	0	1.60931	294.557	39.0135	-0.175151	0.006	-0.772111	0	1.75672	0	0	0	0	0	0	0	0	0	0
10.3	-2.56239	309.414	-42.6675	-0.180289	0.006	-0.362345	0	-2.05671	0	1.4417	294.602	38.9576	-0.17458	0.006	-0.772138	0	1.76069	0	0	0	0	0	0	0	0	0	0
10.31	-2.72056	308.491	-42.3121	-0.179925	0.006	-0.362442	0	-2.06525	0	1.22096	294.75	38.9259	-0.173977	0.006	-0.77218	0	1.76221	0	0	0	0	0	0	0	0	0	0
10.32	-2.83143	307.55	-41.956	-0.179593	0.006	-0.362539	0	-2.07646	0	0.954286	295	38.9264	-0.17336	0.006	-0.772237	0	1.76042	0	0	0	0	0	0	0	0	0	0
